<?xml version="1.0" encoding="UTF-8"?>
<svg xmlns="http://www.w3.org/2000/svg" width="98.85mm" height="89.12mm" viewBox="125.73 54.41 98.85 89.12">
  <path d="M 130.729 83.773 L 130.957 81.012 L 131.430 78.456 L 132.147 75.994 L 133.105 73.635 L 134.237 71.497 L 135.576 69.479 L 137.116 67.594 L 138.761 65.937 L 140.574 64.429 L 142.545 63.084 L 144.594 61.953 L 146.700 61.034 L 148.916 60.302 L 151.231 59.776 L 153.514 59.482 L 155.863 59.407 L 156.193 59.415 L 156.801 59.443 L 157.399 59.486 L 158.008 59.545 L 158.323 59.582 L 159.242 59.708 L 160.142 59.860 L 161.026 60.039 L 161.855 60.235 L 162.682 60.460 L 163.467 60.703 L 164.211 60.961 L 164.954 61.248 L 165.657 61.549 L 166.334 61.867 L 166.985 62.201 L 167.610 62.551 L 168.211 62.916 L 168.775 63.286 L 169.338 63.684 L 169.855 64.078 L 170.360 64.490 L 170.858 64.926 L 171.756 65.796 L 172.553 66.675 L 173.288 67.591 L 173.947 68.519 L 174.533 69.450 L 175.051 70.379 L 175.147 70.571 L 175.242 70.379 L 175.760 69.450 L 176.347 68.519 L 176.991 67.610 L 177.740 66.675 L 178.538 65.796 L 179.456 64.908 L 180.444 64.074 L 181.525 63.282 L 182.702 62.541 L 183.979 61.858 L 185.359 61.240 L 186.847 60.697 L 188.420 60.240 L 190.159 59.859 L 191.966 59.582 L 194.435 59.412 L 196.820 59.490 L 199.215 59.807 L 201.599 60.369 L 203.879 61.148 L 206.075 62.144 L 208.169 63.350 L 210.144 64.758 L 211.982 66.360 L 213.664 68.149 L 215.173 70.117 L 216.490 72.255 L 217.598 74.557 L 218.478 77.013 L 219.113 79.616 L 219.485 82.357 L 219.576 85.187 L 219.369 88.219 L 218.846 91.323 L 218.779 91.575 L 218.059 94.281 L 217.992 94.533 L 216.788 97.840 L 215.218 101.236 L 213.264 104.713 L 210.910 108.266 L 208.138 111.885 L 204.930 115.564 L 201.270 119.295 L 197.139 123.071 L 192.535 126.874 L 187.396 130.729 L 181.762 134.587 L 175.573 138.471 L 175.505 138.505 L 175.432 138.525 L 175.357 138.532 L 175.281 138.524 L 175.209 138.502 L 175.147 138.469 L 175.085 138.502 L 175.012 138.524 L 174.937 138.532 L 174.861 138.525 L 174.788 138.505 L 174.720 138.471 L 172.905 137.333 L 170.532 135.846 L 168.717 134.709 L 163.235 130.970 L 158.218 127.233 L 153.705 123.546 L 149.638 119.882 L 146.015 116.259 L 145.342 115.506 L 143.477 113.418 L 142.804 112.666 L 140.037 109.163 L 137.651 105.704 L 135.645 102.312 L 133.991 98.966 L 132.713 95.760 L 131.746 92.578 L 131.109 89.524 L 130.779 86.612 L 130.778 86.593 L 130.730 83.793" fill="none" stroke="#000000" stroke-width="0.2"/>
</svg>
