<?xml version="1.0" encoding="UTF-8"?>
<svg xmlns="http://www.w3.org/2000/svg" width="51.27mm" height="52.28mm" viewBox="156.81 74.88 51.27 52.28">
  <circle cx="161.806" cy="110.806" r="0.400" fill="none" stroke="#000000" stroke-width="0.1"/>
  <circle cx="167.194" cy="116.194" r="0.400" fill="none" stroke="#000000" stroke-width="0.1"/>
  <circle cx="173.573" cy="120.193" r="0.400" fill="none" stroke="#000000" stroke-width="0.1"/>
  <circle cx="180.933" cy="122.166" r="0.400" fill="none" stroke="#000000" stroke-width="0.1"/>
  <circle cx="188.598" cy="106.620" r="0.400" fill="none" stroke="#000000" stroke-width="0.1"/>
  <circle cx="183.768" cy="105.326" r="0.400" fill="none" stroke="#000000" stroke-width="0.1"/>
  <circle cx="187.771" cy="98.116" r="0.400" fill="none" stroke="#000000" stroke-width="0.1"/>
  <circle cx="188.428" cy="95.662" r="0.400" fill="none" stroke="#000000" stroke-width="0.1"/>
  <circle cx="189.085" cy="93.209" r="0.400" fill="none" stroke="#000000" stroke-width="0.1"/>
  <circle cx="189.743" cy="90.755" r="0.400" fill="none" stroke="#000000" stroke-width="0.1"/>
  <circle cx="180.410" cy="96.144" r="0.400" fill="none" stroke="#000000" stroke-width="0.1"/>
  <circle cx="181.068" cy="93.690" r="0.400" fill="none" stroke="#000000" stroke-width="0.1"/>
  <circle cx="181.725" cy="91.237" r="0.400" fill="none" stroke="#000000" stroke-width="0.1"/>
  <circle cx="182.382" cy="88.783" r="0.400" fill="none" stroke="#000000" stroke-width="0.1"/>
  <circle cx="185.409" cy="79.883" r="0.400" fill="none" stroke="#000000" stroke-width="0.1"/>
  <circle cx="190.239" cy="81.177" r="0.400" fill="none" stroke="#000000" stroke-width="0.1"/>
  <circle cx="203.080" cy="89.277" r="0.400" fill="none" stroke="#000000" stroke-width="0.1"/>
  <circle cx="201.108" cy="96.637" r="0.400" fill="none" stroke="#000000" stroke-width="0.1"/>
  <circle cx="196.325" cy="104.828" r="0.450" fill="none" stroke="#000000" stroke-width="0.1"/>
  <circle cx="196.982" cy="102.375" r="0.450" fill="none" stroke="#000000" stroke-width="0.1"/>
</svg>
