<?xml version="1.0" encoding="UTF-8"?>
<svg xmlns="http://www.w3.org/2000/svg" width="73.44mm" height="63.95mm" viewBox="140.35 67.73 73.44 63.95">
  <path d="M 163.592 80.605 L 163.597 80.660 L 163.613 80.712 L 163.639 80.761 L 163.674 80.803 L 167.987 85.116 L 168.030 85.151 L 168.078 85.177 L 168.131 85.193 L 168.185 85.198 L 168.240 85.193 L 168.292 85.177 L 168.341 85.151 L 168.383 85.116 L 172.414 81.086 L 172.449 81.043 L 172.474 80.995 L 172.490 80.943 L 172.496 80.888 L 172.490 80.833 L 172.474 80.781 L 172.449 80.732 L 172.414 80.690 L 168.100 76.377 L 168.058 76.342 L 168.010 76.316 L 167.957 76.300 L 167.902 76.295 L 167.848 76.300 L 167.795 76.316 L 167.747 76.342 L 167.704 76.377 L 163.674 80.407 L 163.639 80.450 L 163.613 80.498 L 163.597 80.551 L 163.592 80.605 L 163.672 80.605 L 163.676 80.644 L 163.687 80.682 L 163.706 80.716 L 163.730 80.747 L 168.044 85.060 L 168.074 85.085 L 168.109 85.103 L 168.146 85.115 L 168.185 85.118 L 168.224 85.115 L 168.262 85.103 L 168.296 85.085 L 168.327 85.060 L 172.357 81.029 L 172.382 80.999 L 172.400 80.965 L 172.412 80.927 L 172.416 80.888 L 172.412 80.849 L 172.400 80.811 L 172.382 80.777 L 172.357 80.747 L 168.044 76.433 L 168.013 76.408 L 167.979 76.390 L 167.941 76.378 L 167.902 76.375 L 167.863 76.378 L 167.826 76.390 L 167.791 76.408 L 167.761 76.433 L 163.730 80.464 L 163.706 80.494 L 163.687 80.529 L 163.676 80.566 L 163.672 80.605 L 163.752 80.605 L 163.761 80.651 L 163.787 80.690 L 168.100 85.003 L 168.139 85.029 L 168.185 85.038 L 168.231 85.029 L 168.270 85.003 L 172.301 80.973 L 172.327 80.934 L 172.336 80.888 L 172.327 80.842 L 172.301 80.803 L 167.987 76.490 L 167.948 76.464 L 167.902 76.455 L 167.856 76.464 L 167.818 76.490 L 163.787 80.520 L 163.761 80.559 L 163.752 80.605" fill="none" stroke="#000000" stroke-width="0.2"/>
  <path d="M 181.102 88.783 L 181.130 89.049 L 181.213 89.304 L 181.347 89.536 L 181.526 89.734 L 181.730 89.884 L 181.899 89.925 L 182.026 89.963 L 182.101 89.979 L 182.287 90.033 L 182.394 90.058 L 182.516 90.056 L 182.778 90.001 L 182.996 89.905 L 183.047 89.876 L 183.239 89.734 L 183.399 89.558 L 183.434 89.511 L 183.552 89.304 L 183.634 89.049 L 183.661 88.812 L 183.660 88.780 L 183.697 88.736 L 183.738 88.670 L 183.762 88.620 L 183.798 88.521 L 185.785 81.106 L 185.779 81.100 L 185.785 81.106 L 185.832 81.090 L 186.049 80.992 L 186.243 80.853 L 186.286 80.814 L 186.444 80.636 L 186.565 80.430 L 186.589 80.377 L 186.661 80.149 L 186.687 79.913 L 186.687 79.854 L 186.661 79.617 L 186.578 79.363 L 186.444 79.131 L 186.286 78.953 L 186.243 78.914 L 186.073 78.791 L 186.023 78.761 L 185.804 78.666 L 185.543 78.610 L 185.275 78.610 L 185.013 78.666 L 184.769 78.775 L 184.552 78.932 L 184.373 79.131 L 184.240 79.363 L 184.157 79.617 L 184.130 79.854 L 184.130 79.913 L 184.157 80.149 L 184.229 80.377 L 184.253 80.430 L 184.373 80.636 L 184.473 80.749 L 184.484 80.746 L 184.473 80.749 L 182.654 87.538 L 182.670 87.563 L 182.654 87.538 L 182.516 87.510 L 182.249 87.510 L 181.987 87.566 L 181.742 87.675 L 181.526 87.832 L 181.347 88.031 L 181.213 88.263 L 181.130 88.517 L 181.102 88.783 L 181.182 88.783 L 181.205 89.012 L 181.214 89.053 L 181.286 89.271 L 181.400 89.471 L 181.425 89.505 L 181.565 89.660 L 181.596 89.688 L 181.782 89.822 L 182.012 89.924 L 182.257 89.977 L 182.508 89.977 L 182.753 89.924 L 182.964 89.832 L 183.000 89.811 L 183.169 89.688 L 183.200 89.660 L 183.353 89.489 L 183.479 89.271 L 183.556 89.033 L 183.581 88.804 L 183.581 88.762 L 183.577 88.751 L 183.580 88.752 L 183.605 88.725 L 183.629 88.694 L 183.670 88.627 L 183.688 88.592 L 183.721 88.500 L 185.721 81.038 L 185.714 81.032 L 185.721 81.038 L 185.780 81.025 L 186.009 80.922 L 186.196 80.788 L 186.227 80.760 L 186.380 80.589 L 186.496 80.390 L 186.513 80.352 L 186.583 80.133 L 186.609 79.883 L 186.583 79.634 L 186.505 79.395 L 186.391 79.195 L 186.367 79.162 L 186.212 78.992 L 186.026 78.855 L 185.990 78.835 L 185.799 78.750 L 185.760 78.737 L 185.534 78.690 L 185.284 78.690 L 185.038 78.742 L 184.828 78.835 L 184.791 78.855 L 184.622 78.978 L 184.591 79.006 L 184.438 79.178 L 184.313 79.395 L 184.241 79.614 L 184.232 79.654 L 184.209 79.883 L 184.235 80.133 L 184.305 80.352 L 184.322 80.390 L 184.438 80.589 L 184.562 80.727 L 184.572 80.725 L 184.562 80.727 L 182.712 87.632 L 182.727 87.658 L 182.712 87.632 L 182.508 87.590 L 182.257 87.590 L 182.012 87.642 L 181.782 87.744 L 181.579 87.891 L 181.412 88.078 L 181.286 88.295 L 181.209 88.534 L 181.182 88.783 L 181.262 88.783 L 181.290 89.028 L 181.359 89.239 L 181.469 89.431 L 181.484 89.451 L 181.643 89.623 L 181.822 89.753 L 182.036 89.848 L 182.265 89.897 L 182.487 89.898 L 182.512 89.895 L 182.740 89.844 L 182.942 89.753 L 183.132 89.616 L 183.288 89.442 L 183.405 89.239 L 183.478 89.016 L 183.502 88.796 L 183.497 88.724 L 183.561 88.652 L 183.602 88.585 L 183.644 88.479 L 185.656 80.970 L 185.755 80.948 L 185.969 80.853 L 186.167 80.707 L 186.315 80.542 L 186.426 80.350 L 186.504 80.116 L 186.529 79.883 L 186.504 79.650 L 186.432 79.428 L 186.322 79.236 L 186.167 79.060 L 186.149 79.043 L 185.969 78.913 L 185.743 78.815 L 185.526 78.769 L 185.292 78.769 L 185.063 78.818 L 184.860 78.908 L 184.838 78.920 L 184.651 79.060 L 184.503 79.225 L 184.386 79.428 L 184.311 79.663 L 184.289 79.883 L 184.313 80.116 L 184.391 80.350 L 184.503 80.542 L 184.650 80.706 L 182.767 87.734 L 182.716 87.715 L 182.499 87.669 L 182.265 87.669 L 182.036 87.718 L 181.812 87.820 L 181.633 87.951 L 181.484 88.115 L 181.365 88.316 L 181.287 88.550 L 181.262 88.783" fill="none" stroke="#000000" stroke-width="0.2"/>
  <path d="M 181.165 95.216 L 181.044 95.081 L 180.986 95.025 L 180.894 95.002 L 180.767 94.964 L 180.636 94.933 L 180.505 94.894 L 180.399 94.869 L 180.276 94.871 L 180.043 94.919 L 179.987 94.937 L 179.926 94.964 L 179.923 94.980 L 179.926 94.964 L 177.180 92.218 L 177.174 92.221 L 177.180 92.218 L 177.180 87.782 L 177.174 87.779 L 177.180 87.782 L 182.435 82.526 L 182.491 82.462 L 182.517 82.427 L 182.570 82.334 L 182.607 82.234 L 182.629 82.130 L 182.635 82.045 L 182.635 79.537 L 182.629 79.535 L 182.635 79.537 L 184.282 77.890 L 184.279 77.884 L 184.282 77.890 L 185.429 77.890 L 185.431 77.884 L 185.429 77.890 L 186.907 79.369 L 186.913 79.366 L 186.907 79.369 L 186.907 88.600 L 186.913 88.685 L 186.935 88.789 L 186.948 88.831 L 186.992 88.928 L 187.051 89.017 L 187.107 89.081 L 188.496 90.470 L 188.504 90.467 L 188.496 90.470 L 188.486 90.518 L 188.464 90.726 L 188.464 90.785 L 188.491 91.022 L 188.573 91.276 L 188.691 91.483 L 188.726 91.531 L 188.886 91.707 L 189.091 91.856 L 189.259 91.897 L 189.386 91.935 L 189.462 91.951 L 189.648 92.005 L 189.754 92.030 L 189.847 92.030 L 189.905 92.024 L 190.110 91.980 L 190.166 91.962 L 190.357 91.877 L 190.407 91.848 L 190.599 91.707 L 190.760 91.531 L 190.794 91.483 L 190.912 91.276 L 190.995 91.022 L 191.023 90.755 L 190.999 90.518 L 190.987 90.461 L 190.912 90.235 L 190.794 90.028 L 190.760 89.980 L 190.599 89.804 L 190.383 89.647 L 190.166 89.549 L 190.110 89.531 L 189.905 89.487 L 189.847 89.481 L 189.609 89.482 L 189.461 89.512 L 189.458 89.523 L 189.461 89.512 L 188.267 88.318 L 188.261 88.321 L 188.267 88.318 L 188.267 79.087 L 188.258 78.982 L 188.248 78.928 L 188.225 78.853 L 188.204 78.802 L 188.167 78.733 L 188.136 78.688 L 188.068 78.607 L 186.191 76.730 L 186.127 76.674 L 186.038 76.615 L 185.941 76.571 L 185.899 76.558 L 185.795 76.536 L 185.710 76.530 L 184.000 76.530 L 183.915 76.536 L 183.872 76.543 L 183.811 76.558 L 183.711 76.595 L 183.619 76.648 L 183.583 76.674 L 183.519 76.730 L 181.474 78.775 L 181.406 78.856 L 181.375 78.902 L 181.338 78.971 L 181.317 79.021 L 181.294 79.096 L 181.284 79.150 L 181.276 79.228 L 181.275 81.764 L 181.281 81.766 L 181.275 81.764 L 176.019 87.019 L 175.963 87.083 L 175.938 87.119 L 175.905 87.172 L 175.861 87.269 L 175.833 87.372 L 175.826 87.415 L 175.820 87.500 L 175.820 92.500 L 175.826 92.585 L 175.833 92.628 L 175.861 92.731 L 175.905 92.828 L 175.938 92.881 L 175.963 92.917 L 176.019 92.981 L 178.992 95.954 L 179.002 95.951 L 178.992 95.954 L 178.977 96.011 L 178.965 96.116 L 178.965 96.171 L 178.977 96.276 L 179.006 96.378 L 179.027 96.429 L 179.076 96.516 L 179.096 96.519 L 179.076 96.516 L 165.466 110.126 L 165.469 110.132 L 165.466 110.126 L 162.885 110.126 L 162.879 110.136 L 162.885 110.126 L 162.842 110.054 L 162.683 109.875 L 162.640 109.836 L 162.446 109.697 L 162.201 109.589 L 161.940 109.533 L 161.701 109.531 L 161.643 109.538 L 161.439 109.581 L 161.375 109.603 L 161.372 109.613 L 161.375 109.603 L 152.636 100.864 L 152.603 100.864 L 152.636 100.864 L 154.170 99.329 L 154.205 99.287 L 154.231 99.238 L 154.247 99.186 L 154.252 99.131 L 154.247 99.077 L 154.231 99.024 L 154.205 98.976 L 154.170 98.933 L 149.857 94.620 L 149.815 94.585 L 149.766 94.559 L 149.714 94.543 L 149.659 94.538 L 149.604 94.543 L 149.552 94.559 L 149.503 94.585 L 149.461 94.620 L 145.431 98.650 L 145.396 98.693 L 145.370 98.741 L 145.354 98.794 L 145.349 98.848 L 145.509 98.848 L 145.349 98.848 L 145.354 98.903 L 145.370 98.956 L 145.396 99.004 L 145.431 99.046 L 149.744 103.360 L 149.786 103.395 L 149.835 103.420 L 149.887 103.436 L 149.942 103.442 L 149.996 103.436 L 150.049 103.420 L 150.097 103.395 L 150.140 103.360 L 151.674 101.825 L 151.674 101.792 L 151.674 101.825 L 160.538 110.689 L 160.546 110.686 L 160.538 110.689 L 160.526 110.804 L 160.549 111.043 L 160.561 111.100 L 160.637 111.327 L 160.770 111.558 L 160.929 111.736 L 160.972 111.776 L 161.166 111.914 L 161.410 112.023 L 161.672 112.079 L 161.940 112.079 L 162.173 112.031 L 162.229 112.013 L 162.446 111.914 L 162.640 111.776 L 162.683 111.736 L 162.842 111.557 L 162.885 111.486 L 162.879 111.476 L 162.885 111.486 L 165.748 111.486 L 165.853 111.477 L 165.907 111.466 L 166.008 111.434 L 166.102 111.385 L 166.148 111.355 L 166.229 111.287 L 180.129 97.387 L 180.125 97.376 L 180.129 97.387 L 180.276 97.417 L 180.515 97.418 L 180.573 97.412 L 180.806 97.361 L 180.983 97.283 L 181.041 97.211 L 181.109 97.112 L 181.010 97.183 L 180.800 97.277 L 180.761 97.290 L 180.556 97.334 L 180.515 97.338 L 180.285 97.337 L 180.103 97.299 L 180.100 97.289 L 180.103 97.299 L 166.172 111.230 L 166.097 111.293 L 166.064 111.315 L 165.995 111.352 L 165.959 111.367 L 165.865 111.394 L 165.748 111.406 L 162.838 111.406 L 162.832 111.395 L 162.838 111.406 L 162.777 111.511 L 162.624 111.683 L 162.593 111.711 L 162.423 111.834 L 162.387 111.855 L 162.177 111.947 L 161.952 111.996 L 161.910 112.000 L 161.680 111.999 L 161.435 111.947 L 161.206 111.845 L 161.019 111.711 L 160.988 111.683 L 160.835 111.511 L 160.719 111.313 L 160.702 111.274 L 160.638 111.076 L 160.629 111.035 L 160.606 110.805 L 160.622 110.660 L 160.630 110.657 L 160.622 110.660 L 151.674 101.712 L 151.674 101.679 L 151.674 101.712 L 150.083 103.303 L 150.053 103.328 L 150.018 103.347 L 149.981 103.358 L 149.942 103.362 L 149.903 103.358 L 149.865 103.347 L 149.831 103.328 L 149.800 103.303 L 145.487 98.990 L 145.462 98.960 L 145.444 98.925 L 145.432 98.887 L 145.429 98.848 L 145.432 98.809 L 145.444 98.772 L 145.462 98.737 L 145.487 98.707 L 149.518 94.677 L 149.548 94.652 L 149.583 94.633 L 149.620 94.622 L 149.659 94.618 L 149.698 94.622 L 149.736 94.633 L 149.770 94.652 L 149.800 94.677 L 154.114 98.990 L 154.139 99.020 L 154.157 99.055 L 154.169 99.092 L 154.172 99.131 L 154.169 99.170 L 154.157 99.208 L 154.139 99.242 L 154.114 99.273 L 152.523 100.864 L 152.490 100.864 L 152.523 100.864 L 161.357 109.698 L 161.354 109.714 L 161.357 109.698 L 161.435 109.665 L 161.680 109.613 L 161.931 109.613 L 162.177 109.665 L 162.406 109.767 L 162.609 109.914 L 162.777 110.101 L 162.838 110.206 L 162.832 110.217 L 162.838 110.206 L 165.499 110.206 L 165.502 110.212 L 165.499 110.206 L 179.182 96.523 L 179.204 96.526 L 179.182 96.523 L 179.135 96.460 L 179.089 96.373 L 179.055 96.261 L 179.045 96.163 L 179.045 96.124 L 179.052 96.046 L 179.060 96.007 L 179.083 95.932 L 179.093 95.928 L 179.083 95.931 L 176.076 92.924 L 176.006 92.840 L 175.973 92.786 L 175.935 92.700 L 175.910 92.609 L 175.900 92.500 L 175.900 87.500 L 175.910 87.391 L 175.935 87.300 L 175.973 87.214 L 176.006 87.160 L 176.076 87.076 L 181.355 81.797 L 181.361 81.799 L 181.355 81.797 L 181.356 79.236 L 181.363 79.158 L 181.371 79.120 L 181.394 79.045 L 181.409 79.008 L 181.446 78.939 L 181.467 78.907 L 181.530 78.832 L 183.576 76.786 L 183.660 76.716 L 183.742 76.669 L 183.830 76.636 L 183.891 76.621 L 184.000 76.610 L 185.710 76.610 L 185.820 76.621 L 185.911 76.645 L 185.997 76.684 L 186.075 76.735 L 186.135 76.786 L 188.012 78.663 L 188.075 78.738 L 188.096 78.771 L 188.133 78.840 L 188.148 78.876 L 188.171 78.951 L 188.179 78.990 L 188.187 79.087 L 188.187 88.352 L 188.181 88.354 L 188.187 88.352 L 189.435 89.600 L 189.432 89.610 L 189.435 89.600 L 189.597 89.565 L 189.638 89.561 L 189.868 89.562 L 190.093 89.609 L 190.133 89.622 L 190.343 89.716 L 190.546 89.864 L 190.700 90.034 L 190.725 90.068 L 190.839 90.267 L 190.911 90.486 L 190.920 90.527 L 190.943 90.755 L 190.920 90.984 L 190.911 91.025 L 190.839 91.243 L 190.725 91.443 L 190.700 91.477 L 190.560 91.632 L 190.529 91.660 L 190.343 91.795 L 190.133 91.889 L 190.093 91.902 L 189.868 91.949 L 189.617 91.949 L 189.372 91.897 L 189.143 91.795 L 188.940 91.647 L 188.785 91.477 L 188.760 91.443 L 188.646 91.243 L 188.569 91.005 L 188.544 90.776 L 188.544 90.734 L 188.569 90.506 L 188.587 90.448 L 188.599 90.445 L 188.587 90.448 L 187.163 89.024 L 187.093 88.940 L 187.046 88.858 L 187.012 88.770 L 186.998 88.709 L 186.987 88.600 L 186.987 79.336 L 186.993 79.333 L 186.987 79.336 L 185.462 77.810 L 185.464 77.804 L 185.462 77.810 L 184.249 77.810 L 184.246 77.804 L 184.249 77.810 L 182.555 79.504 L 182.549 79.502 L 182.555 79.504 L 182.555 82.045 L 182.549 82.124 L 182.530 82.216 L 182.496 82.303 L 182.449 82.385 L 182.379 82.470 L 177.100 87.748 L 177.094 87.746 L 177.100 87.748 L 177.100 92.251 L 177.094 92.254 L 177.100 92.251 L 179.908 95.060 L 179.905 95.076 L 179.908 95.060 L 180.039 95.002 L 180.264 94.953 L 180.306 94.949 L 180.536 94.950 L 180.761 94.997 L 180.800 95.010 L 181.010 95.104 L 181.165 95.216 L 181.215 95.274 L 181.359 95.476 L 181.462 95.656 L 181.505 95.746 L 181.507 95.922 L 181.529 96.143 L 181.587 95.927 L 181.583 95.720 L 181.532 95.616 L 181.402 95.396 L 181.247 95.187 L 181.103 95.027 L 181.031 94.958 L 181.033 94.955 L 181.031 94.958 L 181.013 94.948 L 180.915 94.925 L 180.786 94.886 L 180.657 94.856 L 180.525 94.816 L 180.416 94.791 L 180.234 94.660 L 180.190 94.621 L 180.032 94.442 L 179.898 94.211 L 179.816 93.956 L 179.789 93.719 L 179.789 93.661 L 179.816 93.424 L 179.888 93.197 L 179.912 93.143 L 180.016 92.962 L 180.050 92.915 L 180.211 92.739 L 180.428 92.582 L 180.645 92.483 L 180.700 92.465 L 180.934 92.417 L 181.056 92.416 L 181.163 92.440 L 181.349 92.494 L 181.424 92.510 L 181.551 92.548 L 181.719 92.589 L 181.924 92.739 L 182.085 92.915 L 182.119 92.962 L 182.224 93.143 L 182.247 93.197 L 182.320 93.424 L 182.346 93.661 L 182.346 93.719 L 182.324 93.927 L 182.312 93.985 L 182.236 94.212 L 182.196 94.284 L 182.185 94.285 L 182.196 94.284 L 182.799 95.330 L 182.841 95.428 L 182.859 95.488 L 182.877 95.593 L 182.877 95.700 L 182.873 95.744 L 182.856 95.827 L 176.656 118.969 L 176.628 119.049 L 176.580 119.144 L 176.518 119.231 L 176.443 119.306 L 176.357 119.370 L 174.849 120.242 L 174.841 120.236 L 174.849 120.242 L 174.825 120.459 L 174.742 120.714 L 174.608 120.946 L 174.450 121.124 L 174.406 121.163 L 174.237 121.286 L 174.186 121.315 L 173.968 121.411 L 173.706 121.466 L 173.468 121.468 L 173.410 121.462 L 173.177 121.411 L 172.959 121.315 L 172.908 121.286 L 172.716 121.145 L 172.537 120.945 L 172.494 120.873 L 172.499 120.864 L 172.494 120.873 L 171.166 120.872 L 171.061 120.860 L 170.959 120.831 L 170.908 120.810 L 170.839 120.773 L 170.793 120.742 L 170.713 120.674 L 167.476 117.437 L 167.479 117.427 L 167.476 117.437 L 167.328 117.467 L 167.090 117.469 L 167.031 117.462 L 166.827 117.419 L 166.771 117.401 L 166.554 117.303 L 166.338 117.145 L 166.177 116.969 L 166.143 116.922 L 166.025 116.715 L 165.950 116.488 L 165.937 116.431 L 165.914 116.194 L 166.074 116.194 L 165.914 116.194 L 165.937 115.957 L 165.950 115.900 L 166.025 115.673 L 166.143 115.466 L 166.177 115.419 L 166.317 115.264 L 166.360 115.224 L 166.554 115.086 L 166.771 114.987 L 166.827 114.969 L 167.060 114.921 L 167.328 114.921 L 167.590 114.977 L 167.808 115.072 L 167.859 115.102 L 168.051 115.243 L 168.211 115.419 L 168.246 115.466 L 168.363 115.673 L 168.446 115.928 L 168.473 116.165 L 168.473 116.223 L 168.451 116.431 L 168.441 116.479 L 168.433 116.482 L 168.441 116.479 L 171.475 119.513 L 171.472 119.519 L 171.475 119.513 L 172.494 119.513 L 172.499 119.523 L 172.494 119.513 L 172.537 119.442 L 172.695 119.263 L 172.739 119.224 L 172.908 119.101 L 172.959 119.072 L 173.177 118.976 L 173.410 118.925 L 173.468 118.919 L 173.677 118.919 L 173.735 118.925 L 173.968 118.976 L 174.169 119.064 L 174.170 119.073 L 174.169 119.064 L 175.415 118.345 L 175.420 118.349 L 175.415 118.345 L 181.044 97.335 L 181.106 97.257 L 181.232 97.074 L 181.324 96.911 L 181.256 97.036 L 181.175 97.158 L 175.484 118.397 L 175.489 118.401 L 175.484 118.397 L 174.173 119.154 L 174.173 119.164 L 174.173 119.154 L 174.154 119.145 L 173.963 119.060 L 173.923 119.047 L 173.698 119.000 L 173.468 118.999 L 173.427 119.003 L 173.202 119.052 L 172.991 119.145 L 172.955 119.166 L 172.786 119.288 L 172.755 119.316 L 172.601 119.489 L 172.541 119.593 L 172.547 119.604 L 172.541 119.593 L 171.442 119.593 L 171.439 119.599 L 171.442 119.593 L 168.350 116.502 L 168.341 116.505 L 168.350 116.502 L 168.371 116.423 L 168.393 116.215 L 168.393 116.173 L 168.368 115.945 L 168.290 115.706 L 168.176 115.506 L 168.152 115.472 L 167.997 115.302 L 167.812 115.166 L 167.775 115.145 L 167.565 115.053 L 167.320 115.001 L 167.069 115.001 L 166.843 115.047 L 166.804 115.060 L 166.613 115.145 L 166.577 115.166 L 166.391 115.302 L 166.236 115.472 L 166.212 115.506 L 166.098 115.706 L 166.020 115.945 L 165.995 116.173 L 165.995 116.215 L 166.020 116.444 L 166.090 116.663 L 166.107 116.701 L 166.223 116.899 L 166.391 117.086 L 166.594 117.233 L 166.804 117.328 L 166.843 117.341 L 167.069 117.387 L 167.299 117.389 L 167.340 117.384 L 167.501 117.350 L 167.505 117.340 L 167.501 117.350 L 170.769 120.618 L 170.844 120.681 L 170.877 120.702 L 170.964 120.748 L 171.057 120.777 L 171.096 120.785 L 171.193 120.793 L 172.541 120.793 L 172.547 120.783 L 172.541 120.793 L 172.601 120.898 L 172.770 121.085 L 172.973 121.233 L 173.182 121.327 L 173.222 121.340 L 173.427 121.383 L 173.468 121.388 L 173.698 121.387 L 173.943 121.335 L 174.154 121.242 L 174.190 121.221 L 174.376 121.085 L 174.543 120.899 L 174.669 120.681 L 174.741 120.463 L 174.750 120.422 L 174.772 120.214 L 174.773 120.193 L 174.765 120.188 L 174.773 120.193 L 176.312 119.304 L 176.388 119.248 L 176.455 119.182 L 176.493 119.132 L 176.540 119.051 L 176.578 118.948 L 182.779 95.806 L 182.794 95.729 L 182.799 95.635 L 182.789 95.542 L 182.765 95.451 L 182.727 95.365 L 182.103 94.284 L 182.091 94.284 L 182.103 94.284 L 182.163 94.179 L 182.236 93.960 L 182.245 93.919 L 182.266 93.711 L 182.266 93.669 L 182.241 93.441 L 182.164 93.202 L 182.038 92.985 L 181.870 92.798 L 181.668 92.651 L 181.438 92.549 L 181.214 92.500 L 181.172 92.496 L 180.942 92.497 L 180.697 92.549 L 180.486 92.641 L 180.450 92.662 L 180.265 92.798 L 180.110 92.969 L 180.085 93.002 L 179.971 93.202 L 179.899 93.420 L 179.891 93.461 L 179.868 93.690 L 179.891 93.919 L 179.899 93.960 L 179.971 94.178 L 180.085 94.378 L 180.110 94.412 L 180.265 94.582 L 180.468 94.729 L 180.677 94.824 L 180.717 94.837 L 180.943 94.884 L 181.064 94.884 L 181.070 94.873 L 181.064 94.884 L 181.225 95.162 L 181.277 95.225 L 181.404 95.398 L 181.552 95.656 L 181.584 95.731 L 181.587 95.927 L 181.642 95.724 L 181.110 94.804 L 180.951 94.804 L 180.721 94.755 L 180.508 94.660 L 180.318 94.522 L 180.161 94.348 L 180.044 94.146 L 179.972 93.923 L 179.948 93.690 L 179.975 93.445 L 180.044 93.235 L 180.155 93.042 L 180.318 92.858 L 180.508 92.720 L 180.721 92.625 L 180.963 92.576 L 181.185 92.576 L 181.402 92.622 L 181.628 92.720 L 181.817 92.858 L 181.966 93.022 L 181.980 93.042 L 182.095 93.246 L 182.163 93.457 L 182.187 93.703 L 182.160 93.935 L 182.091 94.146 L 182.011 94.284 L 182.650 95.391 L 182.681 95.456 L 182.706 95.534 L 182.718 95.614 L 182.717 95.696 L 182.704 95.776 L 176.501 118.927 L 176.470 119.013 L 176.429 119.083 L 176.379 119.147 L 176.333 119.190 L 176.259 119.243 L 174.689 120.149 L 174.692 120.206 L 174.665 120.438 L 174.596 120.649 L 174.479 120.852 L 174.322 121.026 L 174.143 121.156 L 173.919 121.259 L 173.690 121.307 L 173.468 121.308 L 173.443 121.305 L 173.215 121.254 L 173.013 121.163 L 172.823 121.026 L 172.666 120.851 L 172.587 120.713 L 171.193 120.713 L 171.080 120.701 L 170.994 120.674 L 170.915 120.632 L 170.826 120.561 L 167.527 117.263 L 167.311 117.308 L 167.090 117.309 L 166.860 117.263 L 166.634 117.164 L 166.445 117.026 L 166.288 116.852 L 166.166 116.638 L 166.099 116.427 L 166.075 116.207 L 166.099 115.961 L 166.171 115.739 L 166.296 115.526 L 166.445 115.362 L 166.624 115.231 L 166.836 115.133 L 167.077 115.080 L 167.311 115.080 L 167.540 115.129 L 167.765 115.231 L 167.943 115.362 L 168.092 115.526 L 168.107 115.546 L 168.222 115.750 L 168.290 115.961 L 168.314 116.194 L 168.290 116.427 L 168.259 116.524 L 171.409 119.673 L 172.587 119.673 L 172.666 119.535 L 172.814 119.370 L 173.002 119.230 L 173.227 119.128 L 173.456 119.079 L 173.690 119.079 L 173.907 119.125 L 174.121 119.218 L 174.169 119.249 L 175.552 118.450 L 181.384 96.686 L 181.316 96.802 L 181.253 96.873 L 181.187 96.995 L 181.109 97.112 L 181.187 96.995 L 181.253 96.873 L 181.316 96.802 L 181.384 96.686 L 181.425 96.583 L 181.485 96.383 L 181.530 96.139 L 181.506 95.911 L 181.433 95.688 L 181.316 95.485 L 181.160 95.311 L 180.970 95.174 L 180.768 95.083 L 180.527 95.030 L 180.281 95.032 L 180.064 95.078 L 179.890 95.155 L 177.020 92.285 L 177.020 87.715 L 182.322 82.413 L 182.381 82.343 L 182.422 82.273 L 182.452 82.197 L 182.469 82.117 L 182.475 82.045 L 182.475 79.471 L 184.215 77.730 L 185.495 77.730 L 187.067 79.303 L 187.067 88.600 L 187.076 88.691 L 187.096 88.770 L 187.120 88.828 L 187.161 88.898 L 187.220 88.968 L 188.678 90.426 L 188.647 90.523 L 188.623 90.755 L 188.647 90.988 L 188.715 91.199 L 188.830 91.403 L 188.845 91.423 L 188.993 91.588 L 189.172 91.719 L 189.397 91.821 L 189.626 91.869 L 189.860 91.869 L 190.089 91.821 L 190.303 91.725 L 190.492 91.588 L 190.649 91.414 L 190.760 91.222 L 190.835 91.000 L 190.840 90.976 L 190.863 90.755 L 190.838 90.523 L 190.760 90.289 L 190.649 90.097 L 190.501 89.932 L 190.303 89.785 L 190.077 89.687 L 189.847 89.641 L 189.626 89.642 L 189.410 89.687 L 188.107 88.385 L 188.107 79.087 L 188.099 78.998 L 188.063 78.878 L 188.013 78.789 L 187.955 78.720 L 186.078 76.843 L 186.023 76.796 L 185.955 76.752 L 185.880 76.719 L 185.801 76.699 L 185.710 76.690 L 184.000 76.690 L 183.909 76.699 L 183.830 76.719 L 183.772 76.743 L 183.702 76.784 L 183.632 76.843 L 181.587 78.888 L 181.529 78.957 L 181.479 79.046 L 181.447 79.143 L 181.435 79.244 L 181.435 81.830 L 176.132 87.132 L 176.074 87.202 L 176.033 87.272 L 176.009 87.330 L 175.988 87.409 L 175.980 87.500 L 175.980 92.500 L 175.988 92.591 L 176.009 92.670 L 176.033 92.728 L 176.074 92.798 L 176.132 92.868 L 179.179 95.914 L 179.159 95.956 L 179.132 96.054 L 179.124 96.155 L 179.134 96.245 L 179.163 96.343 L 179.205 96.422 L 179.268 96.502 L 179.293 96.526 L 165.532 110.286 L 162.791 110.286 L 162.712 110.148 L 162.555 109.974 L 162.366 109.836 L 162.152 109.741 L 161.923 109.692 L 161.689 109.692 L 161.460 109.741 L 161.340 109.794 L 152.410 100.864 L 154.057 99.216 L 154.083 99.177 L 154.090 99.155 L 154.090 99.108 L 154.083 99.085 L 154.057 99.046 L 149.726 94.718 L 149.705 94.707 L 149.659 94.698 L 149.613 94.707 L 149.574 94.733 L 145.544 98.764 L 145.518 98.803 L 145.509 98.848 L 145.511 98.872 L 145.529 98.915 L 145.544 98.933 L 149.857 103.247 L 149.896 103.273 L 149.942 103.282 L 149.965 103.280 L 150.009 103.262 L 150.027 103.247 L 151.674 101.599 L 160.706 110.630 L 160.686 110.805 L 160.708 111.026 L 160.778 111.250 L 160.900 111.464 L 161.048 111.629 L 161.246 111.776 L 161.460 111.871 L 161.689 111.920 L 161.923 111.920 L 162.152 111.871 L 162.376 111.769 L 162.564 111.629 L 162.712 111.464 L 162.792 111.326 L 165.748 111.326 L 165.849 111.316 L 165.936 111.290 L 166.046 111.231 L 166.115 111.174 L 180.077 97.212 L 180.293 97.257 L 180.515 97.258 L 180.756 97.209 L 180.981 97.107 L 181.160 96.976 L 181.253 96.873" fill="none" stroke="#000000" stroke-width="0.2"/>
  <path d="M 187.828 93.423 L 187.143 92.238 L 187.108 92.186 L 187.045 92.117 L 186.945 92.040 L 186.861 91.998 L 186.787 91.972 L 182.880 90.925 L 182.872 90.933 L 182.880 90.925 L 182.829 90.768 L 182.812 90.730 L 182.696 90.531 L 182.543 90.360 L 182.512 90.332 L 182.325 90.197 L 182.096 90.095 L 181.850 90.043 L 181.600 90.043 L 181.354 90.095 L 181.144 90.188 L 181.107 90.209 L 180.938 90.332 L 180.907 90.360 L 180.754 90.531 L 180.638 90.730 L 180.621 90.768 L 180.551 90.987 L 180.525 91.237 L 180.551 91.486 L 180.629 91.725 L 180.754 91.942 L 180.922 92.128 L 181.125 92.276 L 181.335 92.370 L 181.374 92.383 L 181.579 92.427 L 181.620 92.431 L 181.850 92.430 L 182.076 92.383 L 182.115 92.370 L 182.325 92.276 L 182.528 92.128 L 182.569 92.084 L 182.567 92.075 L 182.569 92.084 L 186.237 93.067 L 186.241 93.061 L 186.237 93.067 L 187.392 95.068 L 187.405 95.068 L 187.392 95.068 L 187.332 95.174 L 187.260 95.393 L 187.251 95.433 L 187.228 95.662 L 187.251 95.891 L 187.260 95.932 L 187.332 96.150 L 187.457 96.368 L 187.625 96.554 L 187.828 96.702 L 188.057 96.804 L 188.302 96.856 L 188.553 96.856 L 188.799 96.804 L 189.028 96.702 L 189.231 96.554 L 189.272 96.510 L 189.270 96.500 L 189.272 96.510 L 189.399 96.544 L 189.403 96.538 L 189.399 96.544 L 190.271 98.055 L 190.278 98.054 L 190.271 98.055 L 188.286 105.465 L 188.293 105.471 L 188.286 105.465 L 188.227 105.478 L 187.998 105.580 L 187.811 105.715 L 187.780 105.743 L 187.640 105.898 L 187.615 105.932 L 187.501 106.132 L 187.429 106.350 L 187.421 106.391 L 187.398 106.620 L 187.421 106.848 L 187.429 106.889 L 187.501 107.108 L 187.615 107.307 L 187.640 107.341 L 187.750 107.464 L 187.761 107.461 L 187.750 107.464 L 184.557 119.380 L 184.563 119.384 L 184.557 119.380 L 181.533 121.126 L 181.533 121.136 L 181.533 121.126 L 181.514 121.117 L 181.323 121.032 L 181.284 121.019 L 181.058 120.972 L 180.808 120.972 L 180.582 121.019 L 180.543 121.032 L 180.333 121.126 L 180.130 121.274 L 179.975 121.444 L 179.951 121.478 L 179.837 121.677 L 179.765 121.896 L 179.756 121.937 L 179.733 122.166 L 179.759 122.415 L 179.837 122.654 L 179.951 122.853 L 179.975 122.887 L 180.115 123.043 L 180.146 123.070 L 180.333 123.205 L 180.543 123.299 L 180.582 123.312 L 180.808 123.359 L 181.058 123.359 L 181.304 123.307 L 181.533 123.205 L 181.720 123.070 L 181.751 123.043 L 181.904 122.871 L 182.020 122.672 L 182.037 122.634 L 182.107 122.415 L 182.132 122.186 L 182.133 122.166 L 182.125 122.160 L 182.133 122.166 L 185.373 120.295 L 185.438 120.251 L 185.507 120.188 L 185.584 120.089 L 185.627 120.005 L 185.652 119.931 L 188.909 107.775 L 188.902 107.768 L 188.909 107.775 L 188.969 107.761 L 189.198 107.659 L 189.384 107.525 L 189.415 107.497 L 189.569 107.325 L 189.684 107.126 L 189.701 107.088 L 189.771 106.869 L 189.798 106.620 L 189.775 106.391 L 189.766 106.350 L 189.694 106.132 L 189.580 105.932 L 189.555 105.898 L 189.445 105.776 L 189.434 105.778 L 189.445 105.776 L 191.495 98.126 L 191.512 98.029 L 191.514 97.990 L 191.512 97.912 L 191.507 97.873 L 191.489 97.797 L 191.476 97.759 L 191.435 97.671 L 190.314 95.728 L 190.257 95.648 L 190.231 95.619 L 190.174 95.565 L 190.143 95.541 L 190.076 95.500 L 190.041 95.482 L 189.949 95.449 L 189.583 95.351 L 189.575 95.358 L 189.583 95.351 L 189.524 95.174 L 189.410 94.975 L 189.386 94.941 L 189.231 94.771 L 189.028 94.623 L 188.799 94.521 L 188.553 94.469 L 188.431 94.468 L 188.425 94.479 L 188.431 94.468 L 188.271 94.190 L 188.393 94.326 L 188.475 94.404 L 188.521 94.412 L 188.709 94.466 L 188.838 94.497 L 188.911 94.520 L 189.045 94.552 L 189.080 94.562 L 189.092 94.570 L 189.284 94.711 L 189.463 94.910 L 189.597 95.142 L 189.645 95.285 L 189.638 95.292 L 189.645 95.285 L 189.970 95.372 L 190.069 95.408 L 190.119 95.432 L 190.185 95.473 L 190.229 95.507 L 190.286 95.560 L 190.322 95.602 L 190.383 95.688 L 191.504 97.631 L 191.549 97.726 L 191.567 97.778 L 191.584 97.855 L 191.592 97.909 L 191.594 97.988 L 191.591 98.042 L 191.572 98.146 L 189.534 105.754 L 189.523 105.757 L 189.534 105.754 L 189.633 105.867 L 189.754 106.073 L 189.778 106.126 L 189.842 106.325 L 189.854 106.382 L 189.878 106.620 L 189.850 106.886 L 189.778 107.113 L 189.754 107.166 L 189.633 107.372 L 189.475 107.550 L 189.431 107.589 L 189.238 107.728 L 189.021 107.826 L 188.974 107.842 L 188.967 107.836 L 188.974 107.842 L 185.729 119.951 L 185.702 120.032 L 185.654 120.127 L 185.592 120.214 L 185.517 120.289 L 185.483 120.317 L 185.413 120.364 L 182.209 122.214 L 182.201 122.208 L 182.209 122.214 L 182.185 122.432 L 182.113 122.659 L 182.089 122.712 L 181.984 122.893 L 181.950 122.941 L 181.789 123.117 L 181.598 123.258 L 181.547 123.287 L 181.328 123.383 L 181.067 123.439 L 180.799 123.439 L 180.566 123.390 L 180.510 123.372 L 180.293 123.274 L 180.099 123.135 L 180.056 123.096 L 179.897 122.918 L 179.777 122.712 L 179.753 122.659 L 179.681 122.432 L 179.653 122.166 L 179.813 122.166 L 179.837 121.933 L 179.910 121.710 L 180.027 121.507 L 180.184 121.333 L 180.373 121.196 L 180.575 121.105 L 180.816 121.052 L 181.050 121.052 L 181.267 121.097 L 181.482 121.190 L 181.529 121.221 L 184.626 119.433 L 187.839 107.442 L 187.692 107.278 L 187.580 107.086 L 187.505 106.865 L 187.478 106.620 L 187.505 106.375 L 187.575 106.164 L 187.685 105.972 L 187.848 105.787 L 188.049 105.644 L 188.252 105.554 L 188.351 105.533 L 190.357 98.044 L 189.451 96.475 L 189.246 96.420 L 189.177 96.495 L 188.998 96.625 L 188.774 96.727 L 188.545 96.776 L 188.311 96.776 L 188.082 96.727 L 187.868 96.632 L 187.678 96.495 L 187.522 96.321 L 187.405 96.118 L 187.336 95.907 L 187.308 95.662 L 187.336 95.417 L 187.405 95.206 L 187.485 95.069 L 186.289 92.998 L 182.543 91.994 L 182.474 92.069 L 182.285 92.207 L 182.059 92.305 L 181.842 92.351 L 181.620 92.351 L 181.595 92.349 L 181.367 92.297 L 181.154 92.200 L 180.976 92.069 L 180.827 91.905 L 180.702 91.692 L 180.633 91.482 L 180.605 91.237 L 180.629 91.004 L 180.702 90.781 L 180.819 90.578 L 180.976 90.404 L 181.154 90.274 L 181.379 90.171 L 181.620 90.122 L 181.842 90.123 L 182.059 90.168 L 182.285 90.267 L 182.483 90.413 L 182.638 90.589 L 182.748 90.781 L 182.817 90.991 L 186.766 92.049 L 186.852 92.081 L 186.923 92.121 L 186.987 92.172 L 187.030 92.217 L 187.082 92.291 L 188.385 94.549 L 188.545 94.548 L 188.762 94.594 L 188.988 94.692 L 189.177 94.830 L 189.334 95.004 L 189.451 95.207 L 189.520 95.417 L 189.929 95.526 L 190.013 95.557 L 190.101 95.609 L 190.192 95.695 L 190.244 95.768 L 191.366 97.710 L 191.411 97.815 L 191.432 97.914 L 191.434 97.993 L 191.417 98.105 L 189.357 105.797 L 189.504 105.961 L 189.615 106.153 L 189.690 106.375 L 189.718 106.620 L 189.693 106.852 L 189.615 107.086 L 189.504 107.278 L 189.356 107.443 L 189.158 107.590 L 188.944 107.685 L 188.845 107.707 L 185.575 119.910 L 185.551 119.978 L 185.514 120.051 L 185.465 120.116 L 185.407 120.173 L 185.333 120.226 L 182.049 122.122 L 182.052 122.178 L 182.028 122.398 L 181.950 122.632 L 181.831 122.834 L 181.682 122.998 L 181.504 123.129 L 181.279 123.231 L 181.050 123.279 L 180.816 123.279 L 180.575 123.226 L 180.362 123.129 L 180.184 122.998 L 180.035 122.834 L 179.915 122.632 L 179.905 122.609 L 179.837 122.398 L 179.813 122.166 L 179.653 122.166 L 179.681 121.899 L 179.764 121.645 L 179.897 121.413 L 180.077 121.214 L 180.268 121.073 L 180.319 121.044 L 180.537 120.948 L 180.799 120.893 L 181.038 120.891 L 181.096 120.897 L 181.328 120.948 L 181.529 121.036 L 181.530 121.046 L 181.529 121.036 L 184.489 119.327 L 184.494 119.331 L 184.489 119.327 L 187.662 107.485 L 187.672 107.482 L 187.662 107.485 L 187.562 107.372 L 187.442 107.166 L 187.418 107.113 L 187.353 106.914 L 187.341 106.857 L 187.318 106.620 L 187.341 106.382 L 187.353 106.325 L 187.418 106.126 L 187.442 106.073 L 187.562 105.867 L 187.721 105.689 L 187.764 105.650 L 187.958 105.511 L 188.175 105.413 L 188.221 105.397 L 188.228 105.403 L 188.221 105.397 L 190.186 98.067 L 190.192 98.066 L 190.186 98.067 L 189.346 96.612 L 189.350 96.607 L 189.346 96.612 L 189.298 96.600 L 189.297 96.591 L 189.298 96.600 L 189.262 96.632 L 189.068 96.771 L 188.851 96.869 L 188.795 96.887 L 188.593 96.930 L 188.537 96.926 L 188.274 96.888 L 188.073 96.840 L 187.825 96.755 L 187.770 96.732 L 187.660 96.680 L 187.571 96.614 L 187.411 96.437 L 187.376 96.390 L 187.272 96.209 L 187.248 96.156 L 187.176 95.928 L 187.149 95.692 L 187.149 95.633 L 187.176 95.396 L 187.259 95.141 L 187.300 95.068 L 187.311 95.068 L 187.300 95.068 L 186.184 93.135 L 186.188 93.130 L 186.184 93.135 L 182.595 92.174 L 182.594 92.165 L 182.595 92.174 L 182.559 92.206 L 182.389 92.329 L 182.339 92.358 L 182.120 92.454 L 181.859 92.510 L 181.737 92.511 L 181.630 92.487 L 181.444 92.433 L 181.368 92.417 L 181.242 92.378 L 181.073 92.337 L 180.868 92.188 L 180.689 91.989 L 180.556 91.757 L 180.473 91.503 L 180.445 91.237 L 180.473 90.971 L 180.556 90.716 L 180.689 90.484 L 180.848 90.306 L 180.891 90.267 L 181.085 90.128 L 181.302 90.030 L 181.358 90.012 L 181.591 89.964 L 181.713 89.962 L 181.820 89.987 L 182.006 90.041 L 182.082 90.057 L 182.208 90.095 L 182.377 90.136 L 182.559 90.267 L 182.602 90.306 L 182.742 90.462 L 182.776 90.509 L 182.894 90.716 L 182.942 90.859 L 182.935 90.867 L 182.942 90.859 L 186.808 91.895 L 186.888 91.922 L 186.928 91.940 L 187.020 91.994 L 187.103 92.061 L 187.173 92.141 L 187.221 92.211 L 187.738 93.107 L 187.771 93.248 L 187.838 93.453 L 187.943 93.697 L 188.068 93.917 L 188.217 94.126 L 188.271 94.190 L 188.250 94.167 L 188.330 94.137 L 188.485 94.248 L 188.714 94.350 L 188.939 94.399 L 188.981 94.403 L 189.211 94.402 L 189.436 94.356 L 189.476 94.343 L 189.685 94.248 L 189.888 94.101 L 189.930 94.056 L 189.926 94.044 L 189.930 94.056 L 193.837 95.103 L 193.945 95.121 L 194.039 95.121 L 194.132 95.107 L 194.192 95.089 L 194.292 95.043 L 202.480 90.316 L 202.479 90.306 L 202.480 90.316 L 202.498 90.326 L 202.689 90.411 L 202.729 90.424 L 202.954 90.470 L 203.184 90.471 L 203.226 90.467 L 203.451 90.418 L 203.661 90.326 L 203.697 90.305 L 203.883 90.169 L 204.051 89.982 L 204.176 89.765 L 204.254 89.526 L 204.280 89.277 L 204.254 89.027 L 204.176 88.789 L 204.051 88.572 L 203.883 88.385 L 203.697 88.249 L 203.661 88.228 L 203.470 88.143 L 203.430 88.130 L 203.205 88.084 L 202.954 88.084 L 202.709 88.136 L 202.480 88.238 L 202.293 88.372 L 202.262 88.400 L 202.109 88.572 L 201.993 88.770 L 201.976 88.808 L 201.906 89.027 L 201.881 89.256 L 201.880 89.277 L 201.888 89.282 L 201.880 89.277 L 193.907 93.880 L 193.908 93.886 L 193.907 93.880 L 190.240 92.897 L 190.233 92.905 L 190.240 92.897 L 190.182 92.721 L 190.068 92.521 L 190.043 92.487 L 189.888 92.317 L 189.703 92.181 L 189.667 92.160 L 189.456 92.068 L 189.231 92.019 L 189.190 92.014 L 188.981 92.014 L 188.939 92.019 L 188.714 92.068 L 188.485 92.170 L 188.282 92.317 L 188.128 92.487 L 188.103 92.521 L 187.989 92.721 L 187.917 92.939 L 187.908 92.980 L 187.885 93.209 L 187.904 93.399 L 187.930 93.471 L 188.015 93.661 L 188.158 93.910 L 188.310 94.114 L 188.451 94.271 L 188.510 94.328 L 188.602 94.351 L 188.729 94.389 L 188.860 94.420 L 188.990 94.459 L 189.097 94.483 L 189.219 94.482 L 189.481 94.426 L 189.699 94.331 L 189.750 94.301 L 189.919 94.178 L 189.956 94.146 L 189.954 94.137 L 189.956 94.146 L 193.816 95.180 L 193.899 95.197 L 193.943 95.201 L 194.050 95.201 L 194.155 95.183 L 194.215 95.166 L 194.256 95.150 L 194.332 95.113 L 202.483 90.406 L 202.483 90.397 L 202.483 90.406 L 202.657 90.484 L 202.713 90.502 L 202.946 90.550 L 203.184 90.551 L 203.243 90.545 L 203.475 90.494 L 203.720 90.385 L 203.936 90.228 L 204.097 90.052 L 204.131 90.005 L 204.249 89.798 L 204.332 89.543 L 204.358 89.306 L 204.358 89.248 L 204.336 89.040 L 204.324 88.983 L 204.249 88.756 L 204.115 88.525 L 203.936 88.326 L 203.744 88.184 L 203.694 88.155 L 203.475 88.060 L 203.243 88.009 L 203.184 88.002 L 202.975 88.002 L 202.917 88.009 L 202.684 88.060 L 202.466 88.155 L 202.415 88.184 L 202.223 88.326 L 202.063 88.502 L 202.028 88.549 L 201.910 88.756 L 201.835 88.983 L 201.823 89.040 L 201.803 89.229 L 201.811 89.234 L 201.803 89.229 L 193.896 93.794 L 193.897 93.800 L 193.896 93.794 L 190.303 92.831 L 190.295 92.839 L 190.303 92.831 L 190.255 92.688 L 190.137 92.481 L 190.102 92.434 L 189.962 92.278 L 189.919 92.239 L 189.737 92.108 L 189.569 92.067 L 189.442 92.029 L 189.366 92.013 L 189.180 91.959 L 189.074 91.934 L 188.952 91.936 L 188.690 91.992 L 188.471 92.087 L 188.421 92.116 L 188.229 92.258 L 188.068 92.434 L 188.034 92.481 L 187.929 92.662 L 187.905 92.716 L 187.833 92.943 L 187.816 93.091 L 187.848 93.226 L 187.885 93.209 L 187.965 93.209 L 187.990 93.442 L 188.068 93.676 L 188.179 93.867 L 188.336 94.041 L 188.525 94.179 L 188.739 94.274 L 188.981 94.323 L 189.202 94.323 L 189.419 94.277 L 189.645 94.179 L 189.835 94.041 L 189.903 93.966 L 193.858 95.026 L 193.928 95.039 L 194.010 95.043 L 194.109 95.030 L 194.187 95.005 L 194.252 94.974 L 202.484 90.221 L 202.531 90.253 L 202.734 90.342 L 202.975 90.391 L 203.197 90.391 L 203.414 90.345 L 203.438 90.338 L 203.650 90.240 L 203.829 90.109 L 203.986 89.935 L 204.103 89.732 L 204.175 89.510 L 204.200 89.277 L 204.175 89.044 L 204.103 88.821 L 203.986 88.619 L 203.829 88.445 L 203.650 88.314 L 203.438 88.216 L 203.414 88.208 L 203.197 88.163 L 202.963 88.163 L 202.734 88.212 L 202.520 88.307 L 202.321 88.453 L 202.174 88.619 L 202.062 88.810 L 201.984 89.044 L 201.960 89.264 L 201.964 89.321 L 193.919 93.966 L 190.177 92.963 L 190.108 92.753 L 189.998 92.561 L 189.835 92.377 L 189.634 92.233 L 189.431 92.144 L 189.202 92.095 L 188.968 92.095 L 188.739 92.144 L 188.525 92.239 L 188.327 92.385 L 188.179 92.551 L 188.062 92.753 L 187.990 92.976 L 187.965 93.209 L 187.885 93.209 L 187.848 93.226 L 187.904 93.399" fill="none" stroke="#000000" stroke-width="0.2"/>
  <path d="M 197.786 103.230 L 197.911 103.129 L 197.953 103.080 L 198.078 102.863 L 198.156 102.624 L 198.181 102.396 L 198.182 102.375 L 198.174 102.370 L 198.182 102.375 L 200.344 101.127 L 200.424 101.071 L 200.454 101.045 L 200.507 100.987 L 200.531 100.956 L 200.572 100.890 L 200.590 100.855 L 200.623 100.763 L 201.419 97.792 L 201.412 97.786 L 201.419 97.792 L 201.478 97.779 L 201.708 97.676 L 201.894 97.542 L 201.925 97.514 L 202.078 97.343 L 202.194 97.144 L 202.211 97.106 L 202.281 96.887 L 202.306 96.658 L 202.306 96.616 L 202.281 96.388 L 202.204 96.149 L 202.090 95.949 L 202.065 95.916 L 201.911 95.746 L 201.725 95.609 L 201.689 95.589 L 201.478 95.496 L 201.233 95.444 L 200.982 95.444 L 200.737 95.496 L 200.508 95.598 L 200.305 95.746 L 200.137 95.932 L 200.011 96.149 L 199.939 96.368 L 199.931 96.408 L 199.908 96.637 L 199.934 96.887 L 200.004 97.106 L 200.021 97.144 L 200.137 97.343 L 200.260 97.481 L 200.271 97.479 L 200.260 97.481 L 199.529 100.212 L 199.534 100.216 L 199.529 100.212 L 197.582 101.336 L 197.583 101.346 L 197.582 101.336 L 197.563 101.326 L 197.353 101.234 L 197.128 101.185 L 197.087 101.180 L 196.857 101.182 L 196.631 101.228 L 196.592 101.241 L 196.401 101.326 L 196.364 101.347 L 196.195 101.470 L 196.164 101.498 L 196.011 101.670 L 195.895 101.868 L 195.878 101.906 L 195.808 102.126 L 195.783 102.354 L 195.783 102.396 L 195.808 102.624 L 195.878 102.844 L 195.895 102.882 L 196.011 103.080 L 196.164 103.252 L 196.195 103.280 L 196.382 103.414 L 196.592 103.509 L 196.631 103.522 L 196.857 103.568 L 197.087 103.569 L 197.128 103.565 L 197.170 103.556 L 197.320 103.499 L 197.578 103.368 L 197.752 103.255 L 197.949 103.098 L 198.139 102.911 L 198.149 102.900 L 198.162 102.868 L 198.234 102.641 L 198.258 102.423 L 198.250 102.418 L 198.258 102.423 L 200.384 101.196 L 200.471 101.136 L 200.512 101.099 L 200.566 101.042 L 200.599 100.999 L 200.640 100.932 L 200.665 100.883 L 200.701 100.783 L 201.484 97.860 L 201.477 97.854 L 201.484 97.860 L 201.530 97.844 L 201.748 97.746 L 201.941 97.607 L 201.985 97.568 L 202.143 97.390 L 202.264 97.184 L 202.287 97.131 L 202.360 96.903 L 202.388 96.637 L 202.364 96.400 L 202.352 96.343 L 202.277 96.117 L 202.143 95.885 L 201.985 95.707 L 201.941 95.668 L 201.748 95.529 L 201.503 95.420 L 201.241 95.364 L 200.974 95.364 L 200.712 95.420 L 200.468 95.529 L 200.251 95.686 L 200.072 95.885 L 199.938 96.117 L 199.863 96.343 L 199.851 96.400 L 199.828 96.637 L 199.856 96.903 L 199.928 97.131 L 199.952 97.184 L 200.072 97.390 L 200.172 97.503 L 200.182 97.500 L 200.172 97.503 L 199.460 100.159 L 199.465 100.163 L 199.460 100.159 L 197.578 101.245 L 197.579 101.255 L 197.578 101.245 L 197.378 101.158 L 197.145 101.107 L 197.087 101.101 L 196.848 101.102 L 196.615 101.150 L 196.559 101.168 L 196.368 101.253 L 196.317 101.282 L 196.148 101.405 L 196.105 101.445 L 195.946 101.623 L 195.813 101.854 L 195.730 102.109 L 195.702 102.375 L 195.862 102.375 L 195.890 102.130 L 195.959 101.919 L 196.069 101.727 L 196.233 101.543 L 196.422 101.405 L 196.648 101.307 L 196.865 101.261 L 197.087 101.260 L 197.328 101.310 L 197.531 101.399 L 197.578 101.430 L 199.597 100.265 L 200.349 97.460 L 200.202 97.296 L 200.090 97.104 L 200.012 96.870 L 199.988 96.637 L 200.010 96.417 L 200.015 96.392 L 200.090 96.171 L 200.202 95.979 L 200.368 95.797 L 200.548 95.667 L 200.750 95.577 L 200.978 95.525 L 201.225 95.523 L 201.454 95.572 L 201.668 95.667 L 201.866 95.814 L 202.021 95.990 L 202.131 96.182 L 202.200 96.392 L 202.228 96.637 L 202.200 96.882 L 202.131 97.093 L 202.021 97.285 L 201.857 97.470 L 201.656 97.613 L 201.454 97.702 L 201.355 97.724 L 200.546 100.742 L 200.504 100.847 L 200.463 100.914 L 200.395 100.990 L 200.304 101.058 L 198.098 102.331 L 198.101 102.388 L 198.074 102.620 L 198.005 102.831 L 197.888 103.033 L 197.731 103.207 L 197.553 103.338 L 197.328 103.440 L 197.099 103.489 L 196.865 103.489 L 196.636 103.440 L 196.411 103.338 L 196.224 103.198 L 196.076 103.033 L 195.965 102.842 L 195.886 102.608 L 195.862 102.375 L 195.702 102.375 L 195.730 102.641 L 195.813 102.896 L 195.946 103.127 L 196.126 103.326 L 196.214 103.392 L 196.379 103.468 L 196.575 103.537 L 196.828 103.601 L 196.884 103.611 L 196.959 103.621 L 197.075 103.590 L 197.170 103.556 L 197.350 103.573 L 197.199 103.631 L 196.975 103.760 L 196.976 103.767 L 196.975 103.760 L 195.669 103.411 L 195.631 103.404 L 195.591 103.405 L 195.553 103.414 L 195.517 103.430 L 195.486 103.453 L 195.459 103.482 L 195.438 103.515 L 195.424 103.552 L 194.907 105.484 L 194.900 105.522 L 194.902 105.562 L 194.910 105.600 L 194.927 105.636 L 194.950 105.667 L 194.978 105.694 L 195.011 105.715 L 195.048 105.729 L 195.434 105.832 L 195.463 105.816 L 195.434 105.832 L 192.522 116.702 L 192.524 116.704 L 192.522 116.702 L 183.824 125.400 L 183.827 125.406 L 183.824 125.400 L 178.100 125.400 L 178.077 125.423 L 178.100 125.400 L 178.100 120.749 L 178.094 120.746 L 178.100 120.749 L 181.924 116.924 L 181.976 116.865 L 182.027 116.786 L 182.065 116.700 L 182.089 116.609 L 182.100 116.500 L 182.100 107.842 L 182.094 107.840 L 182.100 107.842 L 183.461 106.481 L 183.458 106.471 L 183.461 106.481 L 183.643 106.519 L 183.894 106.519 L 184.139 106.467 L 184.349 106.374 L 184.386 106.353 L 184.571 106.217 L 184.726 106.047 L 184.750 106.013 L 184.855 105.832 L 184.872 105.794 L 184.942 105.575 L 184.967 105.346 L 184.968 105.325 L 184.960 105.320 L 184.968 105.325 L 186.518 104.431 L 186.607 104.367 L 186.673 104.301 L 186.712 104.251 L 186.759 104.169 L 186.797 104.067 L 188.039 99.430 L 188.023 99.403 L 188.039 99.430 L 188.139 99.456 L 188.224 99.469 L 188.310 99.467 L 188.395 99.451 L 188.435 99.438 L 188.513 99.402 L 188.583 99.352 L 188.614 99.324 L 188.658 99.275 L 188.683 99.241 L 188.731 99.152 L 188.752 99.090 L 189.117 97.716 L 189.125 97.630 L 189.114 97.523 L 189.081 97.421 L 189.039 97.346 L 189.014 97.312 L 188.955 97.249 L 188.886 97.197 L 188.850 97.176 L 188.761 97.139 L 187.417 96.779 L 187.353 96.766 L 187.317 96.763 L 187.231 96.764 L 187.146 96.781 L 187.106 96.794 L 187.047 96.820 L 187.011 96.841 L 186.941 96.893 L 186.883 96.956 L 186.858 96.990 L 186.826 97.047 L 186.789 97.141 L 186.433 98.469 L 186.416 98.599 L 186.427 98.708 L 186.460 98.810 L 186.514 98.903 L 186.571 98.968 L 186.602 98.996 L 186.672 99.046 L 186.751 99.082 L 186.880 99.119 L 186.906 99.106 L 186.880 99.119 L 185.702 103.516 L 185.708 103.520 L 185.702 103.516 L 184.368 104.286 L 184.369 104.296 L 184.368 104.286 L 184.349 104.277 L 184.158 104.192 L 184.119 104.179 L 183.894 104.132 L 183.643 104.132 L 183.417 104.179 L 183.378 104.192 L 183.168 104.286 L 182.965 104.434 L 182.810 104.604 L 182.786 104.638 L 182.672 104.837 L 182.600 105.056 L 182.591 105.097 L 182.568 105.326 L 182.594 105.575 L 182.612 105.633 L 182.621 105.636 L 182.612 105.633 L 181.076 107.169 L 181.013 107.245 L 180.991 107.277 L 180.954 107.346 L 180.939 107.383 L 180.916 107.458 L 180.909 107.496 L 180.900 107.594 L 180.900 116.251 L 180.906 116.254 L 180.900 116.251 L 177.076 120.076 L 177.006 120.160 L 176.973 120.214 L 176.935 120.300 L 176.910 120.391 L 176.900 120.500 L 176.901 126.020 L 176.912 126.117 L 176.939 126.211 L 176.954 126.247 L 176.991 126.316 L 177.013 126.349 L 177.076 126.424 L 177.151 126.487 L 177.183 126.509 L 177.270 126.554 L 177.383 126.588 L 177.500 126.600 L 184.073 126.600 L 184.170 126.591 L 184.209 126.584 L 184.284 126.561 L 184.320 126.546 L 184.389 126.509 L 184.422 126.487 L 184.497 126.424 L 193.484 117.437 L 193.541 117.371 L 193.596 117.282 L 193.639 117.168 L 196.594 106.143 L 196.577 106.115 L 196.594 106.143 L 196.980 106.246 L 197.019 106.253 L 197.058 106.251 L 197.096 106.243 L 197.132 106.226 L 197.164 106.204 L 197.190 106.175 L 197.211 106.142 L 197.225 106.105 L 197.575 104.799 L 197.569 104.795 L 197.575 104.799 L 204.585 100.752 L 204.666 100.696 L 204.695 100.670 L 204.749 100.612 L 204.773 100.581 L 204.814 100.515 L 204.831 100.480 L 204.865 100.388 L 208.688 86.121 L 208.707 86.000 L 208.704 85.896 L 208.692 85.827 L 208.659 85.728 L 208.609 85.636 L 208.544 85.554 L 208.466 85.485 L 208.377 85.430 L 208.263 85.386 L 191.393 80.866 L 191.386 80.874 L 191.393 80.866 L 191.335 80.689 L 191.209 80.472 L 191.042 80.286 L 190.856 80.150 L 190.839 80.138 L 190.830 80.143 L 190.839 80.138 L 190.839 78.330 L 190.830 78.233 L 190.822 78.194 L 190.799 78.119 L 190.784 78.083 L 190.748 78.014 L 190.726 77.981 L 190.663 77.906 L 186.761 74.005 L 186.707 73.960 L 186.619 73.906 L 186.505 73.862 L 182.641 72.826 L 182.521 72.808 L 182.451 72.808 L 182.347 72.823 L 182.248 72.856 L 182.156 72.905 L 182.062 72.982 L 174.076 80.968 L 174.013 81.043 L 173.991 81.075 L 173.954 81.144 L 173.939 81.181 L 173.912 81.275 L 173.900 81.392 L 173.900 84.751 L 173.906 84.754 L 173.900 84.751 L 169.383 89.268 L 169.386 89.274 L 169.383 89.268 L 168.010 89.268 L 167.992 89.289 L 168.010 89.268 L 167.872 87.966 L 167.281 86.147 L 166.325 84.490 L 165.059 83.083 L 165.028 83.055 L 163.497 81.944 L 161.769 81.174 L 161.729 81.161 L 159.879 80.768 L 157.987 80.767 L 157.945 80.772 L 156.095 81.166 L 154.347 81.944 L 152.816 83.055 L 152.785 83.083 L 151.533 84.474 L 151.508 84.508 L 150.563 86.147 L 149.978 87.946 L 149.969 87.987 L 149.772 89.868 L 149.972 91.771 L 150.556 93.570 L 150.573 93.609 L 151.520 95.246 L 152.785 96.653 L 152.816 96.681 L 154.347 97.792 L 156.095 98.570 L 157.945 98.965 L 157.987 98.969 L 159.879 98.968 L 161.750 98.570 L 163.497 97.792 L 165.028 96.681 L 165.059 96.653 L 166.325 95.246 L 167.272 93.609 L 167.289 93.570 L 167.872 91.771 L 168.010 90.468 L 167.992 90.448 L 168.010 90.468 L 169.647 90.468 L 169.710 90.463 L 169.802 90.443 L 169.890 90.409 L 169.971 90.362 L 170.056 90.292 L 174.937 85.410 L 174.999 85.333 L 175.046 85.247 L 175.061 85.211 L 175.088 85.117 L 175.100 85.000 L 175.100 81.640 L 175.094 81.638 L 175.100 81.640 L 182.665 74.075 L 182.662 74.063 L 182.665 74.075 L 186.039 74.979 L 186.040 74.977 L 186.039 74.979 L 189.639 78.579 L 189.645 78.576 L 189.639 78.579 L 189.639 80.138 L 189.647 80.142 L 189.639 80.138 L 189.621 80.150 L 189.436 80.286 L 189.281 80.456 L 189.256 80.490 L 189.142 80.689 L 189.070 80.908 L 189.062 80.949 L 189.039 81.177 L 189.065 81.427 L 189.135 81.646 L 189.152 81.684 L 189.268 81.883 L 189.421 82.054 L 189.452 82.082 L 189.639 82.217 L 189.868 82.319 L 190.092 82.368 L 190.134 82.372 L 190.364 82.371 L 190.609 82.319 L 190.820 82.226 L 190.856 82.205 L 191.042 82.069 L 191.083 82.025 L 191.080 82.013 L 191.083 82.025 L 207.373 86.390 L 207.402 86.373 L 207.373 86.390 L 203.770 99.837 L 203.775 99.841 L 203.770 99.837 L 197.961 103.191 L 198.043 103.120 L 198.205 102.958 L 203.701 99.784 L 203.707 99.788 L 203.701 99.784 L 207.275 86.446 L 207.304 86.430 L 207.275 86.446 L 191.109 82.115 L 191.107 82.106 L 191.109 82.115 L 191.072 82.147 L 190.903 82.270 L 190.852 82.299 L 190.634 82.395 L 190.372 82.450 L 190.134 82.452 L 190.076 82.446 L 189.843 82.395 L 189.599 82.286 L 189.405 82.147 L 189.361 82.108 L 189.203 81.930 L 189.083 81.724 L 189.059 81.671 L 188.987 81.444 L 188.959 81.177 L 188.987 80.911 L 189.059 80.684 L 189.083 80.631 L 189.203 80.425 L 189.361 80.247 L 189.405 80.208 L 189.559 80.096 L 189.567 80.100 L 189.559 80.096 L 189.559 78.612 L 189.565 78.609 L 189.559 78.612 L 185.997 75.051 L 185.999 75.048 L 185.997 75.051 L 182.689 74.164 L 182.686 74.152 L 182.689 74.164 L 175.180 81.673 L 175.174 81.671 L 175.180 81.673 L 175.180 85.000 L 175.167 85.133 L 175.137 85.234 L 175.116 85.285 L 175.065 85.378 L 174.999 85.460 L 170.113 90.349 L 170.049 90.405 L 169.960 90.463 L 169.862 90.507 L 169.760 90.536 L 169.654 90.547 L 168.082 90.548 L 168.064 90.528 L 168.082 90.548 L 167.950 91.787 L 167.365 93.595 L 167.341 93.648 L 166.389 95.293 L 165.098 96.727 L 163.562 97.846 L 163.511 97.875 L 161.774 98.646 L 159.916 99.043 L 159.858 99.049 L 157.957 99.048 L 156.070 98.646 L 154.333 97.875 L 154.283 97.846 L 152.746 96.727 L 151.473 95.316 L 151.439 95.269 L 150.503 93.648 L 150.480 93.595 L 149.894 91.787 L 149.694 89.897 L 149.692 89.868 L 149.852 89.868 L 150.050 87.982 L 150.632 86.191 L 150.642 86.168 L 151.577 84.548 L 151.592 84.527 L 152.853 83.128 L 154.387 82.013 L 156.119 81.242 L 157.962 80.850 L 157.987 80.847 L 159.858 80.847 L 159.883 80.850 L 161.725 81.242 L 163.446 82.008 L 163.468 82.020 L 164.991 83.128 L 166.260 84.537 L 167.208 86.179 L 167.794 87.982 L 167.938 89.348 L 169.416 89.348 L 173.980 84.785 L 173.980 81.392 L 173.990 81.290 L 174.016 81.204 L 174.075 81.093 L 174.132 81.024 L 182.118 73.038 L 182.196 72.974 L 182.276 72.931 L 182.361 72.901 L 182.451 72.888 L 182.541 72.889 L 182.620 72.904 L 186.484 73.939 L 186.579 73.975 L 186.656 74.022 L 186.709 74.067 L 190.606 77.963 L 190.664 78.032 L 190.723 78.142 L 190.750 78.241 L 190.759 78.330 L 190.759 80.189 L 190.809 80.214 L 190.988 80.345 L 191.145 80.519 L 191.262 80.722 L 191.331 80.932 L 208.243 85.463 L 208.318 85.490 L 208.398 85.534 L 208.468 85.591 L 208.528 85.659 L 208.583 85.755 L 208.613 85.841 L 208.625 85.910 L 208.627 86.000 L 208.610 86.100 L 204.788 100.367 L 204.746 100.473 L 204.705 100.539 L 204.637 100.615 L 204.545 100.683 L 197.506 104.747 L 197.148 106.084 L 197.127 106.126 L 197.092 106.157 L 197.047 106.172 L 197.024 106.173 L 196.537 106.045 L 193.562 117.147 L 193.535 117.223 L 193.491 117.302 L 193.428 117.380 L 184.440 126.368 L 184.351 126.438 L 184.260 126.484 L 184.162 126.512 L 184.073 126.520 L 177.500 126.520 L 177.399 126.510 L 177.301 126.480 L 177.221 126.438 L 177.141 126.376 L 177.075 126.298 L 177.020 126.199 L 176.990 126.101 L 176.980 126.000 L 176.980 120.500 L 176.985 120.428 L 177.003 120.348 L 177.033 120.272 L 177.074 120.202 L 177.132 120.132 L 180.980 116.285 L 180.980 107.594 L 180.988 107.504 L 181.016 107.406 L 181.062 107.315 L 181.132 107.226 L 182.703 105.655 L 182.673 105.558 L 182.648 105.326 L 182.676 105.081 L 182.745 104.870 L 182.855 104.678 L 182.870 104.657 L 183.028 104.485 L 183.208 104.356 L 183.410 104.265 L 183.651 104.212 L 183.885 104.212 L 184.102 104.257 L 184.317 104.350 L 184.364 104.381 L 185.771 103.569 L 186.978 99.063 L 186.783 99.009 L 186.712 98.976 L 186.639 98.923 L 186.579 98.856 L 186.533 98.778 L 186.505 98.692 L 186.496 98.600 L 186.511 98.490 L 186.867 97.162 L 186.895 97.087 L 186.928 97.030 L 186.995 96.952 L 187.079 96.893 L 187.151 96.862 L 187.227 96.846 L 187.339 96.845 L 187.396 96.856 L 188.740 97.217 L 188.839 97.262 L 188.902 97.308 L 188.955 97.366 L 189.008 97.454 L 189.036 97.540 L 189.045 97.630 L 189.038 97.707 L 188.672 99.079 L 188.646 99.145 L 188.613 99.201 L 188.555 99.270 L 188.473 99.332 L 188.390 99.369 L 188.302 99.388 L 188.224 99.389 L 188.145 99.376 L 187.983 99.332 L 186.720 104.046 L 186.688 104.131 L 186.648 104.202 L 186.597 104.266 L 186.552 104.309 L 186.478 104.362 L 184.884 105.282 L 184.887 105.338 L 184.864 105.558 L 184.786 105.792 L 184.666 105.994 L 184.518 106.158 L 184.339 106.289 L 184.114 106.391 L 183.885 106.439 L 183.651 106.439 L 183.435 106.394 L 182.020 107.809 L 182.020 116.500 L 182.012 116.591 L 181.991 116.670 L 181.959 116.744 L 181.915 116.813 L 181.868 116.868 L 178.020 120.715 L 178.020 125.480 L 183.857 125.480 L 192.594 116.744 L 195.532 105.776 L 195.047 105.643 L 195.027 105.631 L 194.996 105.596 L 194.986 105.574 L 194.980 105.528 L 195.509 103.553 L 195.533 103.519 L 195.567 103.495 L 195.607 103.484 L 195.649 103.488 L 196.986 103.846 L 203.839 99.890 L 207.471 86.333 L 191.056 81.935 L 190.988 82.010 L 190.799 82.147 L 190.585 82.243 L 190.368 82.289 L 190.343 82.292 L 190.109 82.289 L 189.892 82.243 L 189.690 82.153 L 189.489 82.010 L 189.326 81.825 L 189.215 81.633 L 189.146 81.422 L 189.119 81.177 L 189.146 80.932 L 189.215 80.722 L 189.326 80.530 L 189.489 80.345 L 189.668 80.214 L 189.719 80.189 L 189.719 78.546 L 186.080 74.907 L 182.641 73.986 L 175.020 81.607 L 175.020 85.000 L 175.010 85.101 L 174.984 85.188 L 174.932 85.289 L 174.876 85.359 L 169.999 90.236 L 169.930 90.294 L 169.859 90.335 L 169.801 90.360 L 169.722 90.380 L 169.641 90.388 L 167.938 90.388 L 167.794 91.754 L 167.208 93.557 L 166.260 95.199 L 165.000 96.600 L 164.981 96.616 L 163.457 97.723 L 161.725 98.494 L 159.870 98.889 L 157.987 98.889 L 157.962 98.887 L 156.119 98.494 L 154.387 97.723 L 152.853 96.609 L 151.592 95.209 L 151.577 95.189 L 150.642 93.569 L 150.632 93.546 L 150.050 91.754 L 149.852 89.868 L 149.692 89.868 L 149.894 87.949 L 150.480 86.141 L 150.503 86.088 L 151.439 84.468 L 151.473 84.420 L 152.746 83.009 L 154.307 81.875 L 156.070 81.090 L 157.928 80.693 L 157.987 80.687 L 159.858 80.687 L 159.916 80.693 L 161.774 81.090 L 163.511 81.862 L 163.562 81.891 L 165.098 83.009 L 166.389 84.443 L 167.354 86.114 L 167.950 87.949 L 168.082 89.188 L 168.064 89.209 L 168.082 89.188 L 169.350 89.188 L 169.353 89.194 L 169.350 89.188 L 173.820 84.718 L 173.826 84.721 L 173.820 84.718 L 173.820 81.392 L 173.833 81.259 L 173.862 81.157 L 173.883 81.107 L 173.920 81.038 L 173.951 80.992 L 174.019 80.911 L 182.005 72.925 L 182.076 72.864 L 182.116 72.836 L 182.221 72.780 L 182.334 72.744 L 182.451 72.728 L 182.569 72.732 L 182.662 72.749 L 186.525 73.784 L 186.614 73.816 L 186.659 73.836 L 186.759 73.899 L 186.812 73.944 L 190.719 77.850 L 190.788 77.931 L 190.818 77.976 L 190.855 78.045 L 190.876 78.096 L 190.899 78.171 L 190.909 78.225 L 190.917 78.303 L 190.919 80.096 L 190.910 80.100 L 190.919 80.096 L 191.095 80.226 L 191.274 80.425 L 191.408 80.657 L 191.456 80.800 L 191.449 80.807 L 191.456 80.800 L 208.284 85.309 L 208.373 85.340 L 208.417 85.361 L 208.518 85.423 L 208.606 85.503 L 208.678 85.596 L 208.734 85.701 L 208.758 85.766 L 208.782 85.882 L 208.787 86.000 L 208.782 86.049 L 208.765 86.142 L 204.942 100.408 L 204.906 100.508 L 204.882 100.557 L 204.840 100.624 L 204.807 100.667 L 204.753 100.724 L 204.712 100.761 L 204.625 100.821 L 197.643 104.852 L 197.638 104.848 L 197.643 104.852 L 197.302 106.126 L 197.283 106.177 L 197.254 106.224 L 197.216 106.264 L 197.172 106.296 L 197.122 106.318 L 197.068 106.331 L 197.013 106.333 L 196.959 106.324 L 196.650 106.241 L 196.634 106.213 L 196.650 106.241 L 193.717 117.189 L 193.685 117.278 L 193.665 117.322 L 193.602 117.422 L 193.541 117.494 L 184.553 126.481 L 184.472 126.549 L 184.427 126.579 L 184.358 126.616 L 184.307 126.637 L 184.232 126.660 L 184.178 126.671 L 184.073 126.680 L 177.500 126.680 L 177.367 126.667 L 177.240 126.628 L 177.146 126.579 L 177.100 126.549 L 177.019 126.481 L 176.951 126.400 L 176.920 126.354 L 176.883 126.285 L 176.862 126.234 L 176.833 126.133 L 176.821 126.027 L 176.820 120.500 L 176.826 120.415 L 176.833 120.372 L 176.861 120.269 L 176.905 120.172 L 176.938 120.119 L 176.963 120.083 L 177.019 120.019 L 180.820 116.218 L 180.826 116.221 L 180.820 116.218 L 180.820 107.594 L 180.829 107.488 L 180.840 107.434 L 180.863 107.359 L 180.884 107.309 L 180.920 107.239 L 180.951 107.194 L 181.019 107.113 L 182.521 105.611 L 182.530 105.614 L 182.521 105.611 L 182.512 105.563 L 182.488 105.326 L 182.512 105.088 L 182.524 105.031 L 182.599 104.805 L 182.717 104.598 L 182.751 104.550 L 182.912 104.374 L 183.128 104.217 L 183.345 104.119 L 183.401 104.101 L 183.634 104.053 L 183.873 104.051 L 183.931 104.057 L 184.164 104.108 L 184.365 104.196 L 184.365 104.206 L 184.365 104.196 L 185.634 103.463 L 185.639 103.467 L 185.634 103.463 L 186.783 99.176 L 186.805 99.165 L 186.783 99.176 L 186.759 99.169 L 186.718 99.155 L 186.632 99.115 L 186.532 99.042 L 186.468 98.973 L 186.433 98.926 L 186.401 98.869 L 186.377 98.816 L 186.349 98.725 L 186.336 98.598 L 186.356 98.449 L 186.712 97.120 L 186.735 97.053 L 186.756 97.007 L 186.789 96.950 L 186.823 96.903 L 186.888 96.833 L 186.964 96.777 L 187.014 96.747 L 187.074 96.721 L 187.130 96.703 L 187.222 96.685 L 187.317 96.683 L 187.368 96.688 L 187.438 96.701 L 187.625 96.752 L 187.795 96.829 L 188.053 96.917 L 188.316 96.977 L 188.587 97.010 L 188.782 97.062 L 188.823 97.077 L 188.909 97.117 L 188.986 97.171 L 189.030 97.210 L 189.092 97.281 L 189.140 97.363 L 189.164 97.416 L 189.184 97.478 L 189.197 97.535 L 189.205 97.630 L 189.197 97.724 L 189.189 97.767 L 188.829 99.111 L 188.806 99.178 L 188.785 99.225 L 188.736 99.306 L 188.653 99.398 L 188.553 99.471 L 188.440 99.521 L 188.319 99.547 L 188.224 99.549 L 188.173 99.544 L 188.096 99.528 L 188.082 99.508 L 188.096 99.528 L 186.874 104.087 L 186.829 104.208 L 186.775 104.300 L 186.708 104.382 L 186.662 104.425 L 186.628 104.453 L 186.558 104.500 L 185.045 105.374 L 185.036 105.368 L 185.045 105.374 L 185.020 105.592 L 184.937 105.846 L 184.804 106.078 L 184.645 106.256 L 184.602 106.295 L 184.408 106.434 L 184.191 106.532 L 184.135 106.550 L 183.931 106.594 L 183.873 106.600 L 183.634 106.598 L 183.487 106.569 L 183.483 106.558 L 183.487 106.569 L 182.180 107.875 L 182.174 107.873 L 182.180 107.875 L 182.180 116.500 L 182.174 116.585 L 182.167 116.628 L 182.139 116.731 L 182.095 116.828 L 182.036 116.917 L 181.981 116.981 L 178.180 120.782 L 178.174 120.779 L 178.180 120.782 L 178.180 125.320 L 178.157 125.343 L 178.180 125.320 L 183.791 125.320 L 183.793 125.326 L 183.791 125.320 L 192.450 116.661 L 192.453 116.662 L 192.450 116.661 L 195.337 105.889 L 195.365 105.872 L 195.337 105.889 L 195.027 105.806 L 194.976 105.787 L 194.929 105.758 L 194.889 105.720 L 194.857 105.676 L 194.835 105.626 L 194.822 105.572 L 194.820 105.517 L 194.829 105.463 L 195.347 103.531 L 195.364 103.485 L 195.388 103.443 L 195.420 103.406 L 195.457 103.374 L 195.499 103.350 L 195.545 103.333 L 195.593 103.325 L 195.642 103.325 L 195.690 103.333 L 196.179 103.464 L 196.349 103.542 L 196.605 103.629 L 196.813 103.679 L 196.967 103.701 L 196.967 103.704 L 196.967 103.701 L 197.150 103.649 L 197.350 103.573 L 197.581 103.458 L 197.796 103.321 L 197.961 103.191" fill="none" stroke="#000000" stroke-width="0.2"/>
</svg>
