%TF.GenerationSoftware,KiCad,Pcbnew,9.0.7*%
%TF.CreationDate,2026-02-05T19:37:10-05:00*%
%TF.ProjectId,555timerCES,35353574-696d-4657-9243-45532e6b6963,rev?*%
%TF.SameCoordinates,Original*%
%TF.FileFunction,Copper,L1,Top*%
%TF.FilePolarity,Positive*%
%FSLAX46Y46*%
G04 Gerber Fmt 4.6, Leading zero omitted, Abs format (unit mm)*
G04 Created by KiCad (PCBNEW 9.0.7) date 2026-02-05 19:37:10*
%MOMM*%
%LPD*%
G01*
G04 APERTURE LIST*
G04 Aperture macros list*
%AMRoundRect*
0 Rectangle with rounded corners*
0 $1 Rounding radius*
0 $2 $3 $4 $5 $6 $7 $8 $9 X,Y pos of 4 corners*
0 Add a 4 corners polygon primitive as box body*
4,1,4,$2,$3,$4,$5,$6,$7,$8,$9,$2,$3,0*
0 Add four circle primitives for the rounded corners*
1,1,$1+$1,$2,$3*
1,1,$1+$1,$4,$5*
1,1,$1+$1,$6,$7*
1,1,$1+$1,$8,$9*
0 Add four rect primitives between the rounded corners*
20,1,$1+$1,$2,$3,$4,$5,0*
20,1,$1+$1,$4,$5,$6,$7,0*
20,1,$1+$1,$6,$7,$8,$9,0*
20,1,$1+$1,$8,$9,$2,$3,0*%
%AMRotRect*
0 Rectangle, with rotation*
0 The origin of the aperture is its center*
0 $1 length*
0 $2 width*
0 $3 Rotation angle, in degrees counterclockwise*
0 Add horizontal line*
21,1,$1,$2,0,0,$3*%
G04 Aperture macros list end*
%TA.AperFunction,ComponentPad*%
%ADD10C,2.000000*%
%TD*%
%TA.AperFunction,ComponentPad*%
%ADD11RotRect,2.000000X2.000000X75.000000*%
%TD*%
%TA.AperFunction,ComponentPad*%
%ADD12RoundRect,0.312500X0.842012X0.486136X-0.486136X0.842012X-0.842012X-0.486136X0.486136X-0.842012X0*%
%TD*%
%TA.AperFunction,SMDPad,CuDef*%
%ADD13C,17.900000*%
%TD*%
%TA.AperFunction,SMDPad,CuDef*%
%ADD14RotRect,5.700000X6.100000X45.000000*%
%TD*%
%TA.AperFunction,Conductor*%
%ADD15C,0.800000*%
%TD*%
G04 APERTURE END LIST*
D10*
%TO.P,C2,1*%
%TO.N,Net-(U1-CV)*%
X185408950Y-79883298D03*
%TO.P,C2,2*%
%TO.N,GND*%
X190238579Y-81177393D03*
%TD*%
%TO.P,R1,1*%
%TO.N,+3V0*%
X161805923Y-110805924D03*
%TO.P,R1,2*%
%TO.N,Net-(U1-DIS)*%
X167194077Y-116194078D03*
%TD*%
%TO.P,R2,1*%
%TO.N,Net-(U1-DIS)*%
X173572626Y-120193359D03*
%TO.P,R2,2*%
%TO.N,Net-(U1-THR)*%
X180932981Y-122165560D03*
%TD*%
%TO.P,C1,1*%
%TO.N,GND*%
X183768104Y-105325537D03*
%TO.P,C1,2*%
%TO.N,Net-(U1-THR)*%
X188597733Y-106619632D03*
%TD*%
D11*
%TO.P,D1,1,K*%
%TO.N,GND*%
X196324609Y-104828462D03*
D10*
%TO.P,D1,2,A*%
%TO.N,Net-(D1-A)*%
X196982011Y-102375008D03*
%TD*%
%TO.P,R3,1*%
%TO.N,Net-(D1-A)*%
X201107617Y-96637288D03*
%TO.P,R3,2*%
%TO.N,Net-(U1-Q)*%
X203079818Y-89276933D03*
%TD*%
D12*
%TO.P,U1,1,GND*%
%TO.N,GND*%
X187770509Y-98115767D03*
D10*
%TO.P,U1,2,TR*%
%TO.N,Net-(U1-THR)*%
X188427908Y-95662312D03*
%TO.P,U1,3,Q*%
%TO.N,Net-(U1-Q)*%
X189085310Y-93208864D03*
%TO.P,U1,4,R*%
%TO.N,+3V0*%
X189742710Y-90755412D03*
%TO.P,U1,5,CV*%
%TO.N,Net-(U1-CV)*%
X182382355Y-88783211D03*
%TO.P,U1,6,THR*%
%TO.N,Net-(U1-THR)*%
X181724953Y-91236662D03*
%TO.P,U1,7,DIS*%
%TO.N,Net-(U1-DIS)*%
X181067554Y-93690115D03*
%TO.P,U1,8,VCC*%
%TO.N,+3V0*%
X180410154Y-96143566D03*
%TD*%
D13*
%TO.P,BT2,N*%
%TO.N,GND*%
X158922145Y-89868234D03*
D14*
%TO.P,BT2,P1*%
%TO.N,+3V0*%
X149800468Y-98989910D03*
%TO.P,BT2,P2*%
X168043822Y-80746558D03*
%TD*%
D15*
%TO.N,GND*%
X186349491Y-74441294D02*
X190238579Y-78330382D01*
X169631766Y-89868234D02*
X158922145Y-89868234D01*
X181500000Y-107593641D02*
X181500000Y-116500000D01*
X196324609Y-104828462D02*
X204285452Y-100232265D01*
X174500000Y-85000000D02*
X169631766Y-89868234D01*
X208108209Y-85965546D02*
X190238579Y-81177392D01*
X186217595Y-103911324D02*
X187770509Y-98115767D01*
X183768104Y-105325537D02*
X186217595Y-103911324D01*
X186349491Y-74441294D02*
X182485791Y-73406019D01*
X182485791Y-73406019D02*
X174500000Y-81391810D01*
X183768104Y-105325537D02*
X181500000Y-107593641D01*
X190238579Y-78330382D02*
X190238579Y-81177393D01*
X204285452Y-100232265D02*
X208108209Y-85965546D01*
X174500000Y-81391810D02*
X174500000Y-85000000D01*
X177500000Y-120500000D02*
X177500000Y-126000000D01*
X184072626Y-126000000D02*
X193059823Y-117012803D01*
X181500000Y-116500000D02*
X177500000Y-120500000D01*
X193059823Y-117012803D02*
X196324609Y-104828462D01*
X177500000Y-126000000D02*
X184072626Y-126000000D01*
%TO.N,+3V0*%
X149800467Y-98989913D02*
X149728447Y-99258701D01*
X180410154Y-96143566D02*
X165747796Y-110805924D01*
X149857856Y-98775739D02*
X151021362Y-98103987D01*
X168043822Y-80543822D02*
X168043822Y-80746558D01*
X149800467Y-98989913D02*
X149857856Y-98775739D01*
X179643566Y-96143566D02*
X180410154Y-96143566D01*
X189742710Y-90755412D02*
X189742711Y-90755412D01*
X161616482Y-110805924D02*
X149800468Y-98989910D01*
X176500000Y-87500000D02*
X181954658Y-82045342D01*
X185710458Y-77210458D02*
X187587380Y-79087380D01*
X149728447Y-99258701D02*
X148442462Y-100001164D01*
X187587380Y-79087380D02*
X187587380Y-88600082D01*
X187587380Y-88600082D02*
X189742710Y-90755412D01*
X184000000Y-77210458D02*
X185710458Y-77210458D01*
X181954658Y-79255800D02*
X184000000Y-77210458D01*
X165747796Y-110805924D02*
X161805923Y-110805924D01*
X176500000Y-92500000D02*
X176500000Y-87500000D01*
X181954658Y-82045342D02*
X181954658Y-79255800D01*
X161805923Y-110805924D02*
X161616482Y-110805924D01*
X180143566Y-96143566D02*
X176500000Y-92500000D01*
X180410154Y-96143566D02*
X180143566Y-96143566D01*
X168043822Y-80543822D02*
X168000000Y-80500000D01*
%TO.N,Net-(U1-THR)*%
X189793934Y-96028338D02*
X188427908Y-95662313D01*
X188597733Y-106619632D02*
X190915253Y-97970523D01*
X190915253Y-97970523D02*
X189793934Y-96028338D01*
X188427908Y-95662313D02*
X186631860Y-92551464D01*
X186631860Y-92551464D02*
X181724951Y-91236664D01*
X185072618Y-119775543D02*
X188597733Y-106619632D01*
X180932982Y-122165562D02*
X185072618Y-119775543D01*
%TO.N,Net-(U1-CV)*%
X185408950Y-79883298D02*
X185408949Y-79883297D01*
X183141696Y-88344807D02*
X182382355Y-88783213D01*
X185408950Y-79883298D02*
X183141696Y-88344807D01*
%TO.N,Net-(D1-A)*%
X200043871Y-100607244D02*
X196982012Y-102375010D01*
X201107617Y-96637288D02*
X200043871Y-100607244D01*
%TO.N,Net-(U1-DIS)*%
X182199631Y-95650934D02*
X181067553Y-93690116D01*
X173572626Y-120193359D02*
X175998845Y-118792583D01*
X171193358Y-120193359D02*
X167194077Y-116194078D01*
X173572626Y-120193359D02*
X171193358Y-120193359D01*
X175998845Y-118792583D02*
X182199631Y-95650934D01*
%TO.N,Net-(U1-Q)*%
X193992213Y-94523666D02*
X189085309Y-93208864D01*
X203079818Y-89276933D02*
X193992213Y-94523666D01*
%TD*%
M02*
