M48
; DRILL file {KiCad 9.0.7} date 2026-02-05T19:37:21-0500
; FORMAT={-:-/ absolute / metric / decimal}
; #@! TF.CreationDate,2026-02-05T19:37:21-05:00
; #@! TF.GenerationSoftware,Kicad,Pcbnew,9.0.7
; #@! TF.FileFunction,Plated,1,2,PTH
FMAT,2
METRIC
; #@! TA.AperFunction,Plated,PTH,ComponentDrill
T1C0.800
; #@! TA.AperFunction,Plated,PTH,ComponentDrill
T2C0.900
%
G90
G05
T1
X161.806Y-110.806
X167.194Y-116.194
X173.573Y-120.193
X180.41Y-96.144
X180.933Y-122.166
X181.068Y-93.69
X181.725Y-91.237
X182.382Y-88.783
X183.768Y-105.326
X185.409Y-79.883
X187.771Y-98.116
X188.428Y-95.662
X188.598Y-106.62
X189.085Y-93.209
X189.743Y-90.755
X190.239Y-81.177
X201.108Y-96.637
X203.08Y-89.277
T2
X196.325Y-104.828
X196.982Y-102.375
M30
